<svg xmlns="http://www.w3.org/2000/svg" width="37" height="37" viewBox="0 0 37 37">
  <g id="Group_2564" data-name="Group 2564" transform="translate(-514 -7500)">
    <g id="Rounded_Rectangle_1_copy_3" data-name="Rounded Rectangle 1 copy 3" transform="translate(514 7500)" fill="none" stroke="#fff" stroke-width="1">
      <rect width="37" height="37" rx="18.5" stroke="none"/>
      <rect x="0.5" y="0.5" width="36" height="36" rx="18" fill="none"/>
    </g>
    <path id="Forma_1" data-name="Forma 1" d="M1332.776,5393.009h-4.865a6.8,6.8,0,0,0-4.226,1.2,3.823,3.823,0,0,0-1.511,2.933,3.613,3.613,0,0,0,3.92,3.437c.236,0,.495-.022.756-.043a1.844,1.844,0,0,0-.238.853,2.226,2.226,0,0,0,.709,1.488,10.833,10.833,0,0,0-4.511,1.006,3.129,3.129,0,0,0-1.819,2.671c0,1.62,1.653,3.131,5.078,3.131,4.062,0,6.212-2.079,6.212-4.138,0-1.509-.945-2.254-1.984-3.063l-.85-.613a1.2,1.2,0,0,1-.613-.941,1.523,1.523,0,0,1,.661-1.073c.991-.722,1.984-1.488,1.984-3.107a3.641,3.641,0,0,0-1.677-2.956h1.465ZM1330.7,5406.4c0,1.356-1.2,2.363-3.473,2.363-2.526,0-4.156-1.117-4.156-2.669s1.512-2.079,2.031-2.254a10.152,10.152,0,0,1,2.479-.351,4.134,4.134,0,0,1,.544.022C1329.92,5404.7,1330.7,5405.286,1330.7,5406.4Zm-1.89-7.047a2.526,2.526,0,0,1-1.607.612c-2.03,0-2.95-2.43-2.95-3.9a2.4,2.4,0,0,1,.519-1.619,2.281,2.281,0,0,1,1.653-.723c1.96,0,2.976,2.451,2.976,4.027A2.113,2.113,0,0,1,1328.81,5399.355Z" transform="translate(-794.726 2117.805)" fill="#fff"/>
  </g>
</svg>
