<svg xmlns="http://www.w3.org/2000/svg" width="38" height="37" viewBox="0 0 38 37">
  <g id="Group_2565" data-name="Group 2565" transform="translate(-467 -7500)">
    <g id="Rounded_Rectangle_1_copy_2" data-name="Rounded Rectangle 1 copy 2" transform="translate(467 7500)" fill="none" stroke="#fff" stroke-width="1">
      <rect width="38" height="37" rx="18.5" stroke="none"/>
      <rect x="0.5" y="0.5" width="37" height="36" rx="18" fill="none"/>
    </g>
    <path id="Forma_1" data-name="Forma 1" d="M1288.706,5403.022v5.7h-3.368V5403.4c0-1.335-.487-2.248-1.706-2.248a1.84,1.84,0,0,0-1.728,1.209,2.218,2.218,0,0,0-.112.805v5.551h-3.369s.045-9.007,0-9.939h3.369v1.409c-.007.011-.016.021-.022.032h.022v-.032a3.356,3.356,0,0,1,3.036-1.643C1287.045,5398.548,1288.706,5399.969,1288.706,5403.022Zm-13.808-9.031a1.725,1.725,0,1,0-.045,3.435h.022a1.726,1.726,0,1,0,.022-3.435Zm-1.706,14.731h3.368v-9.939h-3.368Z" transform="translate(-793.876 2117.788)" fill="#fff"/>
  </g>
</svg>
