<svg xmlns="http://www.w3.org/2000/svg" width="37" height="37" viewBox="0 0 37 37">
  <g id="Group_2563" data-name="Group 2563" transform="translate(-560 -7500)">
    <g id="Rounded_Rectangle_1_copy_4" data-name="Rounded Rectangle 1 copy 4" transform="translate(560 7500)" fill="none" stroke="#fff" stroke-width="1">
      <rect width="37" height="37" rx="18.5" stroke="none"/>
      <rect x="0.5" y="0.5" width="36" height="36" rx="18" fill="none"/>
    </g>
    <path id="Forma_1" data-name="Forma 1" d="M1374.109,5393.008c-4.642,0-7.11,2.929-7.11,6.123a4.458,4.458,0,0,0,2.186,3.915c.2.091.315.052.361-.135.04-.142.217-.824.3-1.146a.291.291,0,0,0-.072-.29,3.761,3.761,0,0,1-.8-2.3,4.531,4.531,0,0,1,4.859-4.39c2.646,0,4.5,1.692,4.5,4.114,0,2.736-1.47,4.629-3.381,4.629a1.5,1.5,0,0,1-1.6-1.828,19.6,19.6,0,0,0,.893-3.367,1.3,1.3,0,0,0-1.359-1.423,2.217,2.217,0,0,0-1.95,2.459,3.461,3.461,0,0,0,.322,1.5s-1.065,4.236-1.263,5.027a11.09,11.09,0,0,0,.078,3.7.112.112,0,0,0,.2.051,13.073,13.073,0,0,0,1.753-3.251c.131-.477.67-2.408.67-2.408a2.942,2.942,0,0,0,2.469,1.159c3.243,0,5.587-2.807,5.587-6.291C1380.747,5395.506,1377.844,5393.008,1374.109,5393.008Z" transform="translate(-795.54 2117.805)" fill="#fff"/>
  </g>
</svg>
