<svg xmlns="http://www.w3.org/2000/svg" width="659" height="545.089" viewBox="0 0 659 545.089">
  <path id="Subtraction_5" data-name="Subtraction 5" d="M226.209,76.16h-6.232L29.132,621.249h5.453Zm16.358,0h-5.453L46.269,621.249h5.453Zm17.137,0h-5.453L62.628,621.249h6.232Zm17.137,0h-5.453L79.765,621.249H86Zm17.137,0h-6.232L96.9,621.249h6.232Zm17.137,0h-6.232L113.26,621.249h7.011Zm17.137,0h-6.232L130.4,621.249h7.011Zm17.137,0h-7.011L147.534,621.249h6.232Zm17.137,0h-7.011L163.892,621.249H170.9Zm17.137,0h-7.011L181.029,621.249h7.011Zm17.137,0h-7.79L198.167,621.249h7.011Zm16.358,0h-7.011L215.3,621.249h7.011Zm17.137,0h-7.011L231.662,621.249h7.79Zm17.137,0h-7.79L248.8,621.249h7.79Zm17.137,0h-7.79L265.936,621.249h7.79Zm17.137,0h-7.79L282.294,621.249h8.569Zm15.579,0h-7.011L299.431,621.249H308l12.463-35.82H400.7l12.463,35.82H688.132Zm-166.7,478.9,29.6-84.1,29.6,84.1Z" transform="translate(-29.132 -76.16)" fill="rgba(8,13,66,0.05)"/>
</svg>
