<svg xmlns="http://www.w3.org/2000/svg" width="179.76" height="179.722" viewBox="0 0 179.76 179.722">
  <path id="Subtraction_3" data-name="Subtraction 3" d="M-293.468-461.665h-2.393l-73.28,179.722h2.094Zm6.281,0h-2.094l-73.28,179.722h2.094Zm6.58,0H-282.7l-73.579,179.722h2.393Zm6.58,0h-2.094L-349.7-281.943h2.393Zm6.58,0h-2.393l-73.28,179.722h2.393Zm6.58,0h-2.393l-73.579,179.722h2.692Zm6.58,0h-2.393l-73.579,179.722h2.692Zm6.58,0H-250.4l-73.28,179.722h2.393Zm6.58,0h-2.692L-317.4-281.943h2.692Zm6.58,0h-2.692l-73.579,179.722h2.692Zm6.58,0h-2.991l-73.28,179.722h2.692Zm6.281,0h-2.692l-73.28,179.722h2.692Zm6.58,0H-217.8l-73.579,179.722h2.991Zm6.58,0h-2.991l-73.28,179.722h2.991Zm6.58,0h-2.991l-73.28,179.722h2.991Zm6.58,0h-2.991l-73.579,179.722h3.29Zm5.982,0h-2.692l-73.28,179.722h3.29Z" transform="translate(369.14 461.665)" fill="#ffc427"/>
</svg>
