<svg xmlns="http://www.w3.org/2000/svg" width="37" height="37" viewBox="0 0 37 37">
  <g id="Group_2566" data-name="Group 2566" transform="translate(-420 -7500)">
    <g id="Rounded_Rectangle_1_copy" data-name="Rounded Rectangle 1 copy" transform="translate(420 7500)" fill="none" stroke="#fff" stroke-width="1">
      <rect width="37" height="37" rx="18.5" stroke="none"/>
      <rect x="0.5" y="0.5" width="36" height="36" rx="18" fill="none"/>
    </g>
    <path id="Forma_1" data-name="Forma 1" d="M1239.251,5395.234a7.166,7.166,0,0,1-2.178.784,3.52,3.52,0,0,0-2.5-1.02,3.332,3.332,0,0,0-3.429,3.226,3.07,3.07,0,0,0,.089.734,9.947,9.947,0,0,1-7.066-3.371,3.06,3.06,0,0,0-.464,1.622,3.18,3.18,0,0,0,1.525,2.685,3.587,3.587,0,0,1-1.553-.406v.041a3.287,3.287,0,0,0,2.75,3.164,3.673,3.673,0,0,1-.9.113,3.6,3.6,0,0,1-.646-.059,3.414,3.414,0,0,0,3.2,2.241,7.156,7.156,0,0,1-4.257,1.38,7.789,7.789,0,0,1-.818-.044,10.158,10.158,0,0,0,5.256,1.449,9.4,9.4,0,0,0,9.754-9.18l-.011-.418a6.676,6.676,0,0,0,1.714-1.668,7.206,7.206,0,0,1-1.969.509A3.289,3.289,0,0,0,1239.251,5395.234Z" transform="translate(-792.991 2117.77)" fill="#fff"/>
  </g>
</svg>
